<svg width="20" height="20" viewBox="0 0 20 20" fill="none" xmlns="http://www.w3.org/2000/svg">
<path d="M14.5 9.5H6.70697L10.3535 5.85352C10.5406 5.65973 10.5406 5.3526 10.3535 5.15881C10.1616 4.96021 9.84509 4.95471 9.64648 5.14655L5.14685 9.64618C5.10059 9.69232 5.06396 9.74762 5.03857 9.80896C5.01373 9.86908 5.00104 9.93286 5.00061 9.99689C5.00061 9.99799 5 9.9989 5 10V10.0001C5 10.0652 5.01324 10.1301 5.03857 10.1912C5.0639 10.2523 5.1004 10.3075 5.14648 10.3535L9.64648 14.8535C9.74011 14.9474 9.86737 15.0002 10 15C10.1326 15 10.2597 14.9473 10.3534 14.8536C10.5487 14.6583 10.5487 14.3417 10.3535 14.1465L6.70697 10.5H14.5C14.7761 10.5 15 10.2761 15 10C15 9.72388 14.7761 9.5 14.5 9.5ZM10 0C4.47717 0 0 4.47717 0 10C0 15.5228 4.47717 20 10 20C15.5201 19.9935 19.9935 15.5201 20 10C20 4.47717 15.5228 0 10 0ZM10 19C5.02942 19 1 14.9706 1 10C1 5.02942 5.02942 1 10 1C14.9683 1.00562 18.9944 5.03174 19 10C19 14.9706 14.9706 19 10 19Z" fill="#BCFD4C"/>
</svg>
