<svg width="140" height="52" viewBox="0 0 140 52" fill="none" xmlns="http://www.w3.org/2000/svg">
<g clip-path="url(#clip0_4519_1922)">
<path d="M51.6682 7.1479C51.6814 6.92942 51.6947 6.71094 51.9883 6.72878C53.7895 6.18037 55.871 5.86827 57.9525 5.55617C62.0889 5.36893 66.2652 4.52625 70.6554 5.01228C71.5361 5.0658 72.4301 4.90083 73.6043 4.97218C75.6725 4.87856 77.7407 4.78494 79.7957 4.9098C82.7313 5.08817 85.3734 5.2487 88.3091 5.42707C89.1897 5.48059 90.364 5.55194 90.9379 5.80609C92.6727 6.35007 94.7276 6.47493 96.489 6.58196C100.012 6.796 103.508 7.44701 106.684 8.51714C111.034 9.65861 115.078 11.0007 119.108 12.5613C124.86 14.8844 129.691 17.8094 133.576 21.7733C137.74 25.9735 138.942 30.4323 137.463 35.3859C136.756 37.3166 135.476 38.9931 133.354 39.9606C130.926 41.1288 128.205 42.2792 125.216 42.9747C121.333 43.8352 117.144 44.8964 112.994 45.3021C106.763 46.0199 100.505 47.1747 94.3267 47.0186C88.6826 47.7721 83.1315 46.9962 77.4874 47.7497C73.671 47.5178 69.8414 47.5044 66.3187 47.2904C57.2049 46.9559 48.1177 46.1845 38.7369 45.3952C37.5627 45.3239 36.4017 45.034 35.2274 44.9627C34.3467 44.9092 33.4926 44.4187 32.6119 44.3652C28.7956 44.1333 25.3126 43.2638 21.5228 42.595C18.894 42.216 16.9055 40.9987 14.2634 40.8382C11.9813 39.6031 9.9794 38.6043 7.69727 37.3692C6.56284 36.6424 5.42841 35.9156 4.58754 35.2067C2.89253 34.0072 2.07821 32.8613 1.30372 31.06C0.542504 29.0401 0.648704 27.2923 2.22272 25.6336C2.84968 25.0139 3.18307 24.3763 3.79674 23.975C8.43915 20.3099 13.3486 17.0996 19.6329 15.5079C30.7072 12.6722 34.8702 12.048 47.3592 10.1754C51.2153 9.75183 55.0715 9.32827 59.1946 9.35951C60.0753 9.41302 60.956 9.46653 62.1435 9.3194C66.6001 8.71304 71.0036 8.9806 75.407 9.24816C81.5719 9.62274 87.7367 9.99732 93.608 10.3541C96.5436 10.5324 99.7728 10.7286 102.655 11.7809C102.936 12.0173 103.523 12.0529 104.11 12.0886C108.807 12.374 112.53 14.1352 116.867 15.4952C118.028 15.785 118.869 16.494 119.403 17.4036C119.39 17.6221 119.67 17.8584 119.67 17.8584C119.363 18.059 118.763 18.2418 118.483 18.0055C114.759 16.2443 110.703 15.1206 106.619 14.4339C105.739 14.3804 104.871 14.1084 104.004 13.8364C101.695 13.0383 99.3465 12.8956 96.998 12.7529C94.3559 12.5924 91.7139 12.4318 89.3919 11.8522C88.5245 11.5802 87.6305 11.7452 86.7365 11.9101C85.8426 12.0751 84.9619 12.0216 84.0812 11.9681C81.746 11.6069 79.3974 11.4642 77.0357 11.54C74.6739 11.6158 72.3386 11.2546 69.9769 11.3304C66.7344 11.3526 63.5184 10.9379 60.2361 11.6157C59.0486 11.7628 57.8744 11.6914 56.7001 11.6201C53.1773 11.406 49.8818 12.3022 46.3457 12.3067C41.8493 13.5685 37.1258 13.72 32.9362 14.7812C26.9853 15.7353 21.3146 16.9258 16.4981 18.6067C16.1913 18.8074 15.8977 18.7895 15.8845 19.008C14.3768 19.5743 12.8692 20.1405 11.9354 20.9609C10.3879 22.1826 8.58669 22.731 7.03922 23.9527C5.79859 24.9738 4.83825 26.2311 4.18475 27.2879C3.53124 28.3446 3.77171 29.2364 4.29246 30.3644C5.10678 31.5103 5.9211 32.6563 7.05553 33.383C10.4721 35.3449 13.8887 37.3068 17.6253 38.8496C20.7882 40.1382 23.9643 41.2083 27.487 41.4224C28.3677 41.4759 29.2484 41.5294 30.4094 41.8192C35.6405 43.0142 41.2182 43.3531 46.5023 43.6742C49.438 43.8525 52.08 44.0131 54.9759 44.8469C56.1368 45.1367 57.3111 45.2081 58.4986 45.0609C60.2866 44.731 62.3415 44.8559 64.1029 44.9629C68.2128 45.2126 72.6163 45.4802 76.7394 45.5114C79.9819 45.4891 83.2111 45.6853 86.4669 45.4446C88.2415 45.3331 90.2965 45.458 92.0711 45.3465C93.8458 45.2351 95.914 45.1415 97.6887 45.03C98.2758 45.0657 99.1565 45.1192 99.7569 44.9364C103.933 44.0937 108.643 44.1606 112.806 43.5364C113.994 43.3893 115.195 43.0237 116.089 42.8587C117.29 42.4931 118.771 42.3638 120.252 42.2345C124.415 41.6103 128.311 40.5313 131.392 38.3064C133.54 36.9019 134.834 35.0069 135.26 32.84C135.819 28.4882 133.99 24.6492 130.079 21.1223C126.169 17.5953 121.004 15.308 115.813 13.4575C111.195 11.8613 106.271 10.4656 101.334 9.28847C98.1309 8.6553 94.9283 8.02213 91.6991 7.82592C86.1214 7.48701 80.5436 7.14811 74.6724 6.79136C72.9375 6.24738 71.1629 6.35884 69.695 6.26965C68.2272 6.18047 67.0397 6.3276 65.5586 6.45689C62.5831 6.93396 59.6475 6.75559 56.672 7.23266C54.8974 7.34411 53.1493 7.01861 51.6682 7.1479Z" fill="#BCFD4C" fill-opacity="0.8"/>
</g>
<defs>
<clipPath id="clip0_4519_1922">
<rect width="137.053" height="42.9011" fill="white" transform="translate(2.60181) rotate(3.47706)"/>
</clipPath>
</defs>
</svg>
