<svg width="246" height="58" viewBox="0 0 246 58" fill="none" xmlns="http://www.w3.org/2000/svg">
<g clip-path="url(#clip0_4521_1965)">
<path d="M89.5539 7.3834C89.5609 7.12407 89.568 6.86473 90.0925 6.87891C93.2607 6.18598 96.9464 5.76657 100.632 5.34716C107.99 5.027 115.368 3.92884 123.229 4.40087C124.803 4.44341 126.383 4.22662 128.481 4.28333C132.16 4.12326 135.839 3.96318 139.51 4.06244C144.756 4.20423 149.476 4.33185 154.722 4.47365C156.295 4.51619 158.393 4.5729 159.435 4.8606C162.569 5.46435 166.24 5.5636 169.387 5.64868C175.682 5.81884 181.962 6.50766 187.704 7.70098C195.544 8.95101 202.852 10.4462 210.154 12.2007C220.581 14.8183 229.414 18.1714 236.638 22.7786C244.38 27.6593 246.862 32.9169 244.603 38.8249C243.491 41.1306 241.337 43.1485 237.63 44.346C233.392 45.7885 228.629 47.2169 223.355 48.1125C216.501 49.2248 209.116 50.5823 201.752 51.1618C190.701 52.1607 179.637 53.6783 168.615 53.6398C158.614 54.6671 148.662 53.879 138.661 54.9063C131.842 54.7219 125.016 54.7969 118.722 54.6268C102.454 54.4465 86.2009 53.7476 69.423 53.0346C67.3249 52.9778 65.2338 52.6618 63.1357 52.6051C61.5621 52.5625 60.0025 52.0013 58.4289 51.9588C51.6101 51.7744 45.3367 50.8263 38.5319 50.1233C33.8181 49.7363 30.1815 48.3404 25.4607 48.2128C21.2995 46.8027 17.6559 45.6661 13.4947 44.256C11.4176 43.4212 9.34054 42.5865 7.78799 41.766C4.67587 40.3842 3.13733 39.045 1.61983 36.9278C0.109342 34.5512 0.165427 32.4765 2.84416 30.4728C3.91425 29.7231 4.45981 28.9593 5.52289 28.469C13.517 24.0136 22.0216 20.0912 33.0998 18.0549C52.6196 14.4302 59.991 13.5914 82.1054 11.0749C88.9453 10.4812 95.7852 9.88757 103.136 9.82675C104.709 9.86929 106.283 9.91183 108.388 9.70921C116.284 8.88457 124.152 9.09726 132.02 9.30996C143.035 9.60773 154.05 9.9055 164.541 10.1891C169.786 10.3309 175.556 10.4869 180.773 11.666C181.29 11.9395 182.339 11.9679 183.389 11.9962C191.781 12.2231 198.551 14.2228 206.384 15.7322C208.475 16.0482 210.027 16.8688 211.048 17.9345C211.041 18.1938 211.559 18.4673 211.559 18.4673C211.027 18.7125 209.971 18.9434 209.454 18.6699C202.684 16.6702 195.369 15.4344 188.039 14.7172C186.466 14.6747 184.899 14.3728 183.332 14.0709C179.157 13.1795 174.961 13.066 170.765 12.9526C166.044 12.825 161.323 12.6974 157.141 12.0653C155.574 11.7634 153.994 11.9802 152.413 12.197C150.833 12.4138 149.259 12.3712 147.686 12.3287C143.496 11.9559 139.3 11.8425 135.097 11.9884C130.894 12.1343 126.704 11.7615 122.501 11.9074C116.724 12.0108 110.961 11.5955 105.164 12.4768C103.058 12.6794 100.96 12.6227 98.8623 12.566C92.5679 12.3958 86.763 13.5365 80.4617 13.6257C72.5447 15.2284 64.1382 15.5202 56.7527 16.8777C46.2201 18.1501 36.205 19.696 27.7494 21.8032C27.2179 22.0483 26.6933 22.0341 26.6863 22.2935C24.0426 23.0006 21.399 23.7077 19.7973 24.7025C17.1326 26.1876 13.9644 26.8805 11.2997 28.3656C9.16655 29.6056 7.5509 31.1191 6.46678 32.3874C5.38267 33.6557 5.87916 34.7072 6.89316 36.0322C8.4317 37.3715 9.97023 38.7107 12.0473 39.5454C18.2856 41.7902 24.5238 44.0351 31.3007 45.7754C37.0354 47.2281 42.7772 48.4214 49.0715 48.5915C50.6451 48.6341 52.2187 48.6766 54.3098 48.9927C63.7233 50.2852 73.6893 50.5546 83.1309 50.8099C88.3762 50.9517 93.0969 51.0793 98.3212 51.9991C100.412 52.3151 102.51 52.3719 104.616 52.1692C107.777 51.7357 111.448 51.8349 114.596 51.92C121.939 52.1185 129.807 52.3312 137.157 52.2704C142.934 52.167 148.704 52.323 154.488 51.9603C157.642 51.786 161.314 51.8853 164.468 51.7111C167.622 51.5368 171.301 51.3767 174.455 51.2025C175.504 51.2308 177.078 51.2734 178.134 51.0424C185.512 49.9442 193.912 49.9118 201.283 49.0729C203.388 48.8703 205.5 48.4084 207.081 48.1916C209.193 47.7296 211.823 47.5412 214.452 47.3527C221.824 46.5139 228.685 45.1422 234.007 42.4314C237.728 40.7153 239.889 38.438 240.484 35.8588C241.149 30.6863 237.596 26.1783 230.358 22.0898C223.12 18.0013 213.741 15.412 204.349 13.3414C195.998 11.5585 187.116 10.0208 178.227 8.74242C172.472 8.06777 166.716 7.39313 160.946 7.23715C150.98 6.96774 141.014 6.69833 130.523 6.41473C127.39 5.81099 124.236 5.98524 121.613 5.91434C118.991 5.84345 116.886 6.04606 114.256 6.2345C108.99 6.87071 103.744 6.72891 98.4779 7.36512C95.3238 7.53938 92.1836 7.19496 89.5539 7.3834Z" fill="#BCFD4C" fill-opacity="0.8"/>
</g>
<defs>
<clipPath id="clip0_4521_1965">
<rect width="244.52" height="50.8482" fill="white" transform="translate(1.56641 0.0737305) rotate(1.54851)"/>
</clipPath>
</defs>
</svg>
