<svg width="219" height="68" viewBox="0 0 219 68" fill="none" xmlns="http://www.w3.org/2000/svg">
<g clip-path="url(#clip0_4522_2076)">
<path d="M80.5912 9.95359C80.608 9.67797 80.6247 9.40235 81.0868 9.43042C83.9094 8.77201 87.1773 8.4173 90.4453 8.06259C96.9477 7.9044 103.5 6.91935 110.415 7.6161C111.801 7.70033 113.204 7.50893 115.052 7.62124C118.303 7.54214 121.554 7.46305 124.789 7.65958C129.409 7.94033 133.568 8.19301 138.189 8.47377C139.575 8.55799 141.423 8.67029 142.331 9.00206C145.069 9.72176 148.304 9.91829 151.076 10.0867C156.621 10.4236 162.132 11.3118 167.148 12.7231C174.012 14.2467 180.397 16.0179 186.766 18.0647C195.856 21.1068 203.51 24.8915 209.695 29.9701C216.324 35.3524 218.299 41.0052 216.066 47.2322C214.991 49.6566 213.009 51.7493 209.691 52.9309C205.894 54.36 201.635 55.761 196.947 56.5828C190.856 57.5959 184.287 58.8566 177.768 59.2904C167.981 60.0789 158.16 61.4186 148.44 61.1047C139.577 61.9494 130.831 60.8647 121.968 61.7094C115.962 61.3444 109.938 61.255 104.393 60.9181C90.0525 60.3234 75.7452 59.1774 60.9759 58.0034C59.1277 57.8911 57.2961 57.5032 55.4479 57.3909C54.0617 57.3067 52.709 56.6712 51.3228 56.587C45.316 56.222 39.8214 55.0582 33.8481 54.142C29.7062 53.6137 26.5555 52.0391 22.3969 51.7864C18.7842 50.1837 15.6167 48.8847 12.0039 47.2819C10.2059 46.3428 8.40788 45.4036 7.07193 44.4925C4.38327 42.946 3.08082 41.4836 1.8286 39.1944C0.593126 36.6296 0.727101 34.4247 3.1714 32.3601C4.14577 31.5894 4.65808 30.7906 5.6157 30.2955C12.8481 25.7554 20.5091 21.7947 30.3632 19.9037C47.7275 16.5326 54.2634 15.8231 73.8711 13.6948C79.9282 13.233 85.9853 12.7711 92.4709 12.8885C93.8571 12.9727 95.2433 13.057 97.1083 12.8937C104.106 12.2123 111.037 12.6334 117.968 13.0546C127.672 13.6441 137.375 14.2337 146.616 14.7952C151.237 15.076 156.32 15.3848 160.873 16.7681C161.319 17.0718 162.243 17.1279 163.167 17.1841C170.56 17.6333 176.449 19.9276 183.297 21.7268C185.128 22.1147 186.464 23.0258 187.321 24.1845C187.305 24.4601 187.75 24.7638 187.75 24.7638C187.271 25.0113 186.33 25.2308 185.885 24.9271C179.995 22.6328 173.593 21.1372 167.158 20.1929C165.772 20.1087 164.402 19.7489 163.033 19.389C159.387 18.3376 155.69 18.113 151.994 17.8884C147.835 17.6357 143.676 17.383 140.013 16.6071C138.644 16.2473 137.241 16.4387 135.838 16.6301C134.435 16.8215 133.049 16.7373 131.663 16.653C127.983 16.1528 124.286 15.9282 120.573 15.9792C116.86 16.0302 113.18 15.53 109.467 15.581C104.367 15.5478 99.3014 14.9634 94.1517 15.757C92.2867 15.9203 90.4384 15.808 88.5902 15.6957C83.0454 15.3588 77.879 16.4281 72.3174 16.3668C65.2692 17.875 57.8427 17.9771 51.2733 19.2378C41.9315 20.33 33.0351 21.7259 25.4913 23.7573C25.0125 24.0048 24.5505 23.9767 24.5337 24.2524C22.1731 24.9388 19.8126 25.6253 18.3594 26.6436C15.9486 28.1569 13.126 28.8153 10.7152 30.3287C8.78316 31.5945 7.29649 33.164 6.28862 34.4859C5.28076 35.8079 5.67584 36.9385 6.51623 38.3727C7.81869 39.835 9.12115 41.2974 10.9192 42.2365C16.33 44.7784 21.7408 47.3203 27.6471 49.339C32.6461 51.0259 37.6618 52.4372 43.2066 52.7741C44.5928 52.8584 45.979 52.9426 47.8105 53.3305C56.0607 54.9384 64.8399 55.4718 73.1571 55.9772C77.7777 56.2579 81.9363 56.5106 86.5067 57.6182C88.3382 58.0061 90.1865 58.1184 92.0515 57.9551C94.8574 57.5723 98.0918 57.7688 100.864 57.9373C107.333 58.3304 114.264 58.7515 120.75 58.8689C125.849 58.9021 130.932 59.211 136.048 58.9685C138.837 58.8614 142.072 59.0579 144.861 58.9507C147.65 58.8436 150.901 58.7645 153.69 58.6573C154.614 58.7135 156.001 58.7977 156.941 58.5782C163.494 57.5932 170.904 57.7667 177.44 57.0573C179.305 56.894 181.187 56.4551 182.59 56.2637C184.471 55.8247 186.798 55.6895 189.125 55.5542C195.661 54.8448 201.769 53.5561 206.573 50.805C209.925 49.0722 211.924 46.7039 212.554 43.9758C213.351 38.4914 210.401 33.6093 204.183 29.082C197.966 24.5546 189.799 21.5686 181.599 19.1339C174.307 17.031 166.535 15.1756 158.747 13.5959C153.698 12.7358 148.649 11.8757 143.566 11.5669C134.787 11.0334 126.008 10.5 116.766 9.93851C114.027 9.21881 111.238 9.32598 108.928 9.1856C106.618 9.04522 104.753 9.20854 102.425 9.34379C97.7546 9.8899 93.1339 9.60914 88.463 10.1553C85.6739 10.2624 82.9183 9.81835 80.5912 9.95359Z" fill="#BCFD4C" fill-opacity="0.8"/>
</g>
<defs>
<clipPath id="clip0_4522_2076">
<rect width="215.719" height="54.1213" fill="white" transform="translate(3.28247) rotate(3.47706)"/>
</clipPath>
</defs>
</svg>
