<svg width="282" height="32" viewBox="0 0 282 32" fill="none" xmlns="http://www.w3.org/2000/svg">
<g clip-path="url(#clip0_4521_1960)">
<path d="M205.407 30.7399C196.269 30.7399 187.13 30.7399 178.426 30.7399C176.25 30.7399 174.074 30.7399 172.333 30.7399C168.852 30.488 165.806 31.9998 162.324 31.4958C158.407 30.7399 154.926 30.9919 151.009 30.9919C147.528 30.9919 144.046 30.9919 140.565 30.9919C138.824 30.9919 137.083 30.7399 135.343 30.236C134.472 29.984 133.167 29.984 132.296 30.236C129.685 30.488 127.509 30.488 124.898 30.7399C120.981 30.9919 117.5 30.236 113.583 30.488C110.102 30.7399 106.62 30.488 103.139 30.7399C100.963 30.7399 99.2222 30.488 97.9167 29.2281C97.0463 28.4722 95.3055 28.2203 94 28.7242C89.213 30.488 84.4259 30.9919 79.2037 30.488C78.3333 30.488 76.5926 30.488 76.1574 29.984C73.5463 28.2203 70.0648 28.2203 66.5833 28.2203C65.713 28.2203 64.4074 28.2203 63.537 27.9683C59.6204 27.2124 56.1389 27.7163 52.6574 29.2281C50.4815 30.236 48.3056 30.7399 46.1296 30.7399C43.5185 30.7399 41.3426 30.9919 38.7315 30.9919C36.1204 30.9919 33.0741 31.2439 30.463 31.4958C25.6759 31.9998 20.8889 31.9998 16.1019 31.9998C15.2315 31.9998 13.9259 31.7478 13.0556 31.4958C11.75 30.9919 10.8796 30.7399 9.57407 30.236C7.83333 29.984 6.52778 28.9762 6.52778 27.9683C6.52778 26.9604 6.09259 25.9525 4.78704 25.1966C2.61111 24.1888 2.61111 22.677 3.0463 21.4171C3.48148 20.4092 3.48148 19.4014 3.0463 18.3935C2.17593 17.3856 2.17593 15.8738 1.30556 14.614C0 12.5982 0 10.5825 0 8.56672C0 7.55884 0.87037 6.55097 2.17593 5.79506C5.22222 4.28325 8.26852 3.27538 12.1852 3.02341C17.8426 2.51947 23.9352 2.2675 29.5926 2.01553C35.25 1.76357 40.4722 1.5116 46.1296 1.00766C50.4815 0.503723 55.2685 0.503723 59.6204 0.503723C70.9352 0.755692 82.6852 0.755692 94 0.755692C94.8704 0.755692 95.3055 0.755692 96.1759 0.755692C100.093 1.00766 103.574 1.5116 107.491 1.00766C110.972 0.755692 114.454 0.755692 117.935 0.755692C125.769 0.755692 134.037 -0.000213891 141.87 0.755692C142.741 0.755692 144.046 0.755692 144.917 0.755692C147.528 0.503723 150.574 0.755692 153.185 1.00766C155.796 1.25963 157.972 1.25963 160.583 1.00766C162.759 0.755692 164.935 0.755692 166.676 0.755692C172.768 0.503723 178.426 1.25963 184.519 0.755692C190.176 0.251755 196.268 0.503723 202.361 0.503723C208.454 0.503723 214.111 0.503723 220.204 0.503723C228.037 0.503723 235.435 0.251755 243.269 0.251755C245.009 0.251755 246.75 0.251755 248.491 -0.000213832C250.231 -0.252182 251.972 -0.252182 253.713 -0.000213832C257.63 0.503723 261.546 0.503723 265.028 -0.000213832C268.509 -0.504151 271.991 -0.252182 275.037 0.251755C277.213 0.503723 277.213 0.503723 276.343 1.76357C275.472 3.27538 275.472 3.77931 277.648 4.28325C280.694 5.03916 282 6.04703 282 8.06278C282 10.0785 282.435 12.0943 282 14.11C281.565 15.3699 282 16.8817 282.435 18.3935C282.435 20.9132 282.435 23.6848 280.694 26.2045C279.824 27.4644 278.518 28.2203 276.343 28.4722C271.556 28.9762 266.768 29.4801 261.981 29.7321C251.537 29.984 241.093 30.7399 230.648 30.7399C222.38 30.9919 213.676 30.7399 205.407 30.7399Z" fill="#BCFD4C" fill-opacity="0.8"/>
</g>
<defs>
<clipPath id="clip0_4521_1960">
<rect width="282" height="32" fill="white"/>
</clipPath>
</defs>
</svg>
