<svg width="174" height="54" viewBox="0 0 174 54" fill="none" xmlns="http://www.w3.org/2000/svg">
<g clip-path="url(#clip0_4522_2073)">
<path d="M63.8834 7.8898C63.8967 7.67132 63.91 7.45284 64.2762 7.4751C66.5137 6.95319 69.1041 6.67201 71.6946 6.39084C76.8489 6.26544 82.0431 5.48461 87.5239 6.03692C88.6227 6.10368 89.7348 5.95197 91.1999 6.04099C93.777 5.97829 96.3542 5.91559 98.9181 6.07138C102.581 6.29393 105.877 6.49422 109.54 6.71677C110.639 6.78354 112.104 6.87256 112.823 7.13555C114.994 7.70603 117.558 7.86182 119.756 7.99535C124.151 8.26241 128.52 8.96643 132.496 10.0851C137.937 11.2929 142.998 12.6969 148.046 14.3193C155.252 16.7307 161.319 19.7308 166.221 23.7566C171.477 28.023 173.042 32.5039 171.272 37.4399C170.42 39.3617 168.849 41.0205 166.218 41.9572C163.209 43.09 159.832 44.2006 156.117 44.852C151.289 45.655 146.081 46.6544 140.914 46.9982C133.156 47.6233 125.371 48.6853 117.666 48.4364C110.641 49.106 103.708 48.2462 96.6825 48.9157C91.9209 48.6264 87.1462 48.5556 82.7509 48.2885C71.3832 47.8171 60.0421 46.9087 48.3347 45.9781C46.8696 45.8891 45.4178 45.5816 43.9528 45.4925C42.8539 45.4258 41.7817 44.922 40.6829 44.8553C35.9213 44.566 31.5659 43.6435 26.831 42.9172C23.5478 42.4984 21.0503 41.2502 17.7538 41.0499C14.89 39.7795 12.3792 38.7498 9.51545 37.4794C8.09019 36.7349 6.66494 35.9904 5.60595 35.2682C3.4747 34.0423 2.44226 32.8831 1.44965 31.0685C0.470312 29.0354 0.576512 27.2876 2.51407 25.651C3.28643 25.0401 3.69253 24.4069 4.45162 24.0145C10.1846 20.4157 16.2574 17.2761 24.0685 15.7771C37.8329 13.1048 43.0138 12.5425 58.5565 10.8554C63.3579 10.4893 68.1592 10.1232 73.3003 10.2163C74.3991 10.283 75.4979 10.3498 76.9762 10.2203C82.5234 9.68024 88.0175 10.0141 93.5115 10.3479C101.203 10.8152 108.895 11.2826 116.22 11.7277C119.883 11.9502 123.912 12.195 127.522 13.2915C127.875 13.5323 128.607 13.5768 129.34 13.6213C135.2 13.9773 139.869 15.796 145.296 17.2222C146.748 17.5297 147.807 18.252 148.487 19.1704C148.473 19.3889 148.826 19.6296 148.826 19.6296C148.447 19.8258 147.701 19.9998 147.348 19.7591C142.679 17.9404 137.605 16.7549 132.503 16.0064C131.405 15.9396 130.319 15.6544 129.233 15.3691C126.343 14.5356 123.413 14.3576 120.483 14.1796C117.186 13.9793 113.89 13.779 110.986 13.164C109.901 12.8787 108.789 13.0304 107.677 13.1822C106.565 13.3339 105.466 13.2671 104.367 13.2003C101.45 12.8038 98.5199 12.6258 95.5764 12.6662C92.633 12.7067 89.7161 12.3101 86.7726 12.3506C82.7304 12.3243 78.7147 11.861 74.6326 12.4901C73.1542 12.6196 71.6892 12.5305 70.2241 12.4415C65.8288 12.1745 61.7335 13.022 57.325 12.9735C51.738 14.169 45.8511 14.2499 40.6436 15.2492C33.2386 16.115 26.1865 17.2215 20.2067 18.8317C19.8271 19.028 19.4609 19.0057 19.4476 19.2242C17.5764 19.7684 15.7052 20.3125 14.5533 21.1197C12.6423 22.3193 10.4049 22.8412 8.49387 24.0408C6.96242 25.0442 5.78395 26.2883 4.98504 27.3362C4.18612 28.3841 4.49929 29.2802 5.16546 30.4172C6.19789 31.5763 7.23033 32.7355 8.65559 33.48C12.9446 35.4948 17.2337 37.5097 21.9156 39.1099C25.8782 40.4471 29.854 41.5659 34.2493 41.8329C35.3481 41.8997 36.4469 41.9665 37.8987 42.274C44.4385 43.5485 51.3976 43.9713 57.9905 44.3719C61.6532 44.5944 64.9497 44.7947 68.5725 45.6727C70.0244 45.9802 71.4894 46.0692 72.9678 45.9398C75.192 45.6364 77.7559 45.7921 79.9535 45.9257C85.0813 46.2372 90.5753 46.5711 95.7164 46.6642C99.7587 46.6905 103.788 46.9353 107.843 46.7431C110.054 46.6582 112.618 46.814 114.829 46.729C117.04 46.6441 119.617 46.5814 121.828 46.4964C122.56 46.5409 123.659 46.6077 124.405 46.4337C129.599 45.6529 135.473 45.7905 140.654 45.2281C142.132 45.0987 143.624 44.7507 144.736 44.599C146.227 44.2511 148.072 44.1439 149.917 44.0367C155.098 43.4743 159.939 42.4527 163.747 40.272C166.404 38.8984 167.989 37.0211 168.488 34.8586C169.12 30.5112 166.781 26.6413 161.853 23.0525C156.924 19.4638 150.451 17.0969 143.951 15.1669C138.17 13.4999 132.01 12.0292 125.836 10.777C121.834 10.0952 117.831 9.41343 113.802 9.16863C106.843 8.74579 99.8842 8.32294 92.5588 7.87785C90.3877 7.30736 88.1768 7.39231 86.3454 7.28103C84.5141 7.16976 83.0357 7.29922 81.1911 7.40642C77.4885 7.83931 73.8258 7.61677 70.1233 8.04966C67.9124 8.13461 65.7281 7.7826 63.8834 7.8898Z" fill="#BCFD4C" fill-opacity="0.8"/>
</g>
<defs>
<clipPath id="clip0_4522_2073">
<rect width="170.997" height="42.9011" fill="white" transform="translate(2.60205) rotate(3.47706)"/>
</clipPath>
</defs>
</svg>
